<svg width="31" height="31" viewBox="0 0 31 31" fill="none" xmlns="http://www.w3.org/2000/svg">
<path fill-rule="evenodd" clip-rule="evenodd" d="M15.7746 30.3955C24.0936 30.3955 30.8375 23.6798 30.8375 15.3955C30.8375 7.11124 24.0936 0.395508 15.7746 0.395508C7.45558 0.395508 0.71167 7.11124 0.71167 15.3955C0.71167 16.9235 0.941106 18.3982 1.36754 19.7872C1.47636 19.8067 1.6523 19.8513 1.90866 19.9261L1.50834 13.6536C1.50834 13.5386 1.7031 13.4833 1.88153 13.4326C1.97946 13.4048 2.07247 13.3784 2.12567 13.3443C2.27094 13.2528 5.26258 14.3406 5.42239 14.4128L9.248 16.1361C10.2359 15.5151 11.4175 15.2648 12.5797 15.4333L16.0566 11.2118C16.1002 7.84234 18.8604 5.12751 22.2551 5.12269C25.4269 5.15639 28.0564 7.56316 28.3567 10.6968C28.6763 14.0855 26.1775 17.0892 22.7684 17.4117L16.9767 21.5272C16.6232 23.3323 15.3254 24.8101 13.5724 25.3973C10.8848 26.3023 7.96472 24.8678 7.05917 22.1915L5.04467 21.5272C4.89531 21.48 2.15386 20.3443 1.41129 19.9272C3.34051 25.9965 9.04168 30.3955 15.7746 30.3955ZM25.3546 11.2839C25.3546 12.9853 23.967 14.3646 22.2553 14.3646C20.5436 14.3646 19.156 12.9853 19.156 11.2839C19.156 9.58253 20.5436 8.20327 22.2553 8.20327C23.967 8.20327 25.3546 9.58253 25.3546 11.2839ZM24.3236 11.284C24.3236 12.4191 23.3978 13.3393 22.2557 13.3393C21.1137 13.3393 20.1879 12.4191 20.1879 11.284C20.1879 10.1488 21.1137 9.22858 22.2557 9.22858C23.3978 9.22858 24.3236 10.1488 24.3236 11.284ZM10.5804 23.2986C10.9969 23.5008 11.4569 23.6067 11.9218 23.6067C12.2753 23.6067 12.6191 23.5489 12.9581 23.4382C13.7377 23.1687 14.3721 22.6055 14.7304 21.869C15.4761 20.3335 14.8272 18.4947 13.2873 17.7534C13.0259 17.6283 12.7208 17.7342 12.5949 17.9893C12.469 18.2492 12.5755 18.5525 12.8322 18.6776C12.8661 18.6921 12.9 18.7065 12.9338 18.7258C13.9508 19.2456 14.343 20.4827 13.82 21.4936C13.297 22.5044 12.0477 22.8943 11.0356 22.3744C10.7741 22.2493 10.469 22.3552 10.3431 22.6103C10.2172 22.8702 10.3238 23.1735 10.5804 23.2986Z" fill="#FFB548"/>
</svg>
