<svg width="31" height="31" viewBox="0 0 31 31" fill="none" xmlns="http://www.w3.org/2000/svg">
<path d="M10.5514 3.04504C12.1356 3.66626 13.667 4.48673 15.1104 5.48888C15.2747 5.60023 15.4625 5.65884 15.6502 5.65884C15.838 5.65884 16.0257 5.60023 16.19 5.48888C17.6334 4.48673 19.1648 3.6604 20.7491 3.03918C21.107 2.89853 21.3476 2.5469 21.3417 2.16011C21.3417 1.77331 21.1011 1.42754 20.7373 1.29275C17.5689 0.0913414 13.7315 0.0913414 10.569 1.29275C10.211 1.42754 9.9646 1.77917 9.9646 2.16011C9.9646 2.54104 10.1876 2.90439 10.5514 3.04504Z" fill="#FFB548"/>
<path d="M24.1587 3.05036C23.8594 2.84525 23.478 2.82766 23.1553 3.00934C21.4009 4.01735 19.7052 5.17187 18.1034 6.4436C17.8922 6.61356 17.7631 6.86556 17.7513 7.13515C17.7396 7.40473 17.8452 7.66845 18.0388 7.85599C21.3599 11.0148 25.96 20.7022 27.0162 25.1562C24.7278 21.2883 19.6231 12.1869 16.2845 9.07498C15.9265 8.74093 15.3633 8.74093 15.0053 9.07498C11.6608 12.1869 6.5737 21.2942 4.28536 25.168C5.34152 20.714 9.92992 11.0148 13.2509 7.85599C13.4504 7.66845 13.5561 7.40473 13.5443 7.13515C13.5326 6.86556 13.4035 6.61356 13.1923 6.4436C11.5904 5.17187 9.88885 4.01735 8.14033 3.00934C7.82935 2.82766 7.43622 2.84525 7.13698 3.05036C3.05905 5.85755 0.624023 10.4698 0.624023 15.3926C0.624023 18.991 1.92075 22.4604 4.28536 25.168C7.11351 28.485 11.2501 30.3955 15.6449 30.3955C20.0397 30.3955 24.1822 28.4909 27.0162 25.1621C29.369 22.4663 30.6658 18.9968 30.6658 15.3926C30.6658 10.4698 28.2307 5.85755 24.1587 3.05036Z" fill="#FFB548"/>
</svg>
